<mxfile host="drawio-plugin" modified="2023-01-30T16:31:36.581Z" agent="5.0 (Macintosh; Intel Mac OS X 10_15_7) AppleWebKit/537.36 (KHTML, like Gecko) Chrome/104.0.5112.102 Safari/537.36" version="20.5.3" etag="_49CaxnU_UJQhCY8g3Rw" type="embed"><diagram id="lrSss34pAUVBStn45Vro" name="Page-1"><mxGraphModel dx="906" dy="191" grid="1" gridSize="10" guides="1" tooltips="1" connect="1" arrows="1" fold="1" page="1" pageScale="1" pageWidth="850" pageHeight="1100" math="0" shadow="0"><root><mxCell id="0"/><mxCell id="1" parent="0"/><mxCell id="2" value="vector" style="html=1;" vertex="1" parent="1"><mxGeometry x="50" y="40" width="110" height="50" as="geometry"/></mxCell><mxCell id="3" value="vector_base" style="html=1;" vertex="1" parent="1"><mxGeometry x="50" y="150" width="110" height="50" as="geometry"/></mxCell><mxCell id="4" value="Extends" style="endArrow=block;endSize=16;endFill=0;html=1;rounded=0;exitX=0.5;exitY=1;exitDx=0;exitDy=0;entryX=0.5;entryY=0;entryDx=0;entryDy=0;" edge="1" parent="1" source="2" target="3"><mxGeometry width="160" relative="1" as="geometry"><mxPoint x="340" y="120" as="sourcePoint"/><mxPoint x="500" y="120" as="targetPoint"/></mxGeometry></mxCell><mxCell id="5" value="iterator_traits" style="html=1;" vertex="1" parent="1"><mxGeometry x="315" y="40" width="110" height="50" as="geometry"/></mxCell><mxCell id="8" style="edgeStyle=orthogonalEdgeStyle;rounded=0;orthogonalLoop=1;jettySize=auto;html=1;entryX=0.5;entryY=1;entryDx=0;entryDy=0;" edge="1" parent="1" source="6" target="5"><mxGeometry relative="1" as="geometry"/></mxCell><mxCell id="6" value="random_access_iterator" style="html=1;" vertex="1" parent="1"><mxGeometry x="220" y="150" width="150" height="50" as="geometry"/></mxCell><mxCell id="9" style="edgeStyle=orthogonalEdgeStyle;rounded=0;orthogonalLoop=1;jettySize=auto;html=1;entryX=0.5;entryY=1;entryDx=0;entryDy=0;" edge="1" parent="1" source="7" target="5"><mxGeometry relative="1" as="geometry"/></mxCell><mxCell id="7" value="bidirectional iterator" style="html=1;" vertex="1" parent="1"><mxGeometry x="380" y="150" width="150" height="50" as="geometry"/></mxCell></root></mxGraphModel></diagram></mxfile>